# xmcd
#
# Track frame offsets:
#	182
#	14997
#	32190
#	49230
#	64937
#	91685
#	107812
#	124760
#	146832
#	174427
#
# Disc length: 2560 seconds
#
# Revision: 0
# Processed by: cddbd v1.5.1PL2 Copyright (c) Steve Scherf et al.
# Submitted via: EasyCDDAExtractor 10.0.1.1
#
DISCID=9009fe0a
DTITLE=Flotsam and Jetsam - Drift
DYEAR=1995
DGENRE=Heavy Metal
TTITLE0=Me
TTITLE1=Empty Air
TTITLE2=Pick A Window
TTITLE3=12 Year Old With A Gun
TTITLE4=Missing
TTITLE5=Blindside
TTITLE6=Remember
TTITLE7=Destructive Signs
TTITLE8=Smoked Out
TTITLE9=Poet's Tell
EXTD=
EXTT0=
EXTT1=
EXTT2=
EXTT3=
EXTT4=
EXTT5=
EXTT6=
EXTT7=
EXTT8=
EXTT9=
PLAYORDER=
